<?xml version="1.0" encoding="UTF-8"?>
<svg width="30px" height="30px" viewBox="0 0 30 30" version="1.1" xmlns="http://www.w3.org/2000/svg" xmlns:xlink="http://www.w3.org/1999/xlink">
    <!-- Generator: Sketch 51.3 (57544) - http://www.bohemiancoding.com/sketch -->
    <title>instagram</title>
    <desc>Created with Sketch.</desc>
    <defs></defs>
    <g id="Page-1" stroke="none" stroke-width="1" fill="none" fill-rule="evenodd">
        <g id="Desktop-HD" transform="translate(-20.000000, -871.000000)" fill="#1C2541">
            <g id="Header" transform="translate(20.000000, 23.000000)">
                <path d="M2,848 L28,848 C29.1045695,848 30,848.895431 30,850 L30,876 C30,877.104569 29.1045695,878 28,878 L2,878 C0.8954305,878 1.3527075e-16,877.104569 0,876 L0,850 C-1.3527075e-16,848.895431 0.8954305,848 2,848 Z M15.0050653,854.000562 C12.5601901,854.000562 12.2545807,854.011249 11.2938528,854.053435 C10.3370646,854.09562 9.67913201,854.250299 9.10956163,854.471913 C8.51522732,854.703651 8.01206929,855.009635 7.51285098,855.512484 C7.00969295,856.011958 6.70352073,856.514244 6.4716403,857.104838 C6.24989056,857.677996 6.095116,858.331587 6.05290476,859.287787 C6.01069352,860.251299 6,860.556721 6,863.000094 C6,865.443466 6.01069352,865.748888 6.05290476,866.709025 C6.095116,867.665226 6.24989056,868.322754 6.4716403,868.891974 C6.70408355,869.485943 7.00969295,869.988792 7.51285098,870.487704 C8.01206929,870.986615 8.51522732,871.296536 9.10618473,871.5249 C9.67969483,871.746513 10.3336877,871.901192 11.2904759,871.943378 C12.250641,871.985563 12.5568132,871.99625 15.0016884,871.99625 C17.4465637,871.99625 17.7527359,871.985563 18.712901,871.943378 C19.6696892,871.901192 20.3276218,871.746513 20.8971922,871.5249 C21.4881496,871.296536 21.9913076,870.987178 22.4905259,870.487704 C22.9897442,869.98823 23.2998562,869.485943 23.5283597,868.895349 C23.7501094,868.322191 23.904884,867.6686 23.9470952,866.7124 C23.9893065,865.752825 24,865.446841 24,863.003468 C24,860.560096 23.9893065,860.254674 23.9470952,859.294537 C23.904884,858.338336 23.7501094,857.680808 23.5283597,857.111588 C23.30661,856.513682 23.0004377,856.011395 22.4978425,855.511921 C21.9986242,855.01301 21.4954662,854.703088 20.9045088,854.474725 C20.3309987,854.253112 19.6770058,854.098432 18.7202176,854.056247 C17.7566756,854.010687 17.4505034,854 15.0056282,854 L15.0050653,854.000562 Z M15.0050653,855.621041 C17.4111062,855.621041 17.6958914,855.631727 18.6419861,855.673913 C19.5216684,855.712723 19.9961228,855.860091 20.3129886,855.983272 C20.7317241,856.145263 21.0339566,856.342128 21.3468826,856.654862 C21.6637484,856.971533 21.8567944,857.270205 22.0222625,857.688683 C22.1455194,858.005354 22.2929773,858.482891 22.3318116,859.358658 C22.3740229,860.308109 22.3847164,860.592719 22.3847164,862.993906 C22.3847164,865.395094 22.3740229,865.683079 22.3318116,866.629155 C22.2929773,867.508296 22.1455194,867.982459 22.0222625,868.29913 C21.8601713,868.717608 21.6637484,869.019655 21.3502595,869.332389 C21.0333938,869.64906 20.7345382,869.841987 20.3163655,870.007354 C19.9994997,870.130535 19.5211056,870.277902 18.645363,870.316712 C17.6953286,870.358898 17.4105434,870.369585 15.0078794,870.369585 C12.6052154,870.369585 12.3170533,870.358898 11.3703958,870.316712 C10.4907135,870.277902 10.0162591,870.130535 9.69939341,870.007354 C9.28065787,869.845362 8.97842536,869.64906 8.66493653,869.335764 C8.34807079,869.019093 8.1550247,868.720421 7.98955663,868.302505 C7.86629979,867.985834 7.71884185,867.507734 7.6800075,866.632529 C7.63779626,865.683079 7.62710275,865.398469 7.62710275,862.997281 C7.62710275,860.596094 7.63779626,860.308109 7.6800075,859.362033 C7.71884185,858.482891 7.86629979,858.008729 7.98955663,857.692058 C8.1516478,857.273579 8.34863361,856.971533 8.66155963,856.658237 C8.97842536,856.341566 9.27728097,856.148638 9.69601651,855.983272 C10.0128822,855.860091 10.4907135,855.712723 11.3670189,855.673913 C12.3131136,855.631727 12.5984616,855.621041 15.0045025,855.621041 L15.0050653,855.621041 Z M15.1283222,858.499766 C12.5748233,858.499766 10.5025327,860.57022 10.5025327,863.122712 C10.5025327,865.675204 12.5742605,867.745659 15.1283222,867.745659 C17.6823838,867.745659 19.7541117,865.675204 19.7541117,863.122712 C19.7541117,860.570783 17.6823838,858.499766 15.1283222,858.499766 Z M15.1283222,866.121244 C13.4713902,866.121244 12.127947,864.778626 12.127947,863.122712 C12.127947,861.466799 13.4713902,860.124181 15.1283222,860.124181 C16.7852542,860.124181 18.1286974,861.466799 18.1286974,863.122712 C18.1286974,864.778626 16.7852542,866.121244 15.1283222,866.121244 Z M20.7671815,857.779241 C20.7671815,857.183022 20.2837221,856.699859 19.6871365,856.699859 C19.0905509,856.699859 18.6070915,857.183022 18.6070915,857.779241 C18.6070915,858.37546 19.0905509,858.858622 19.6871365,858.858622 C20.2837221,858.858622 20.7671815,858.37546 20.7671815,857.779241 Z" id="instagram"></path>
            </g>
        </g>
    </g>
</svg>