<?xml version="1.0" encoding="UTF-8"?>
<svg width="351px" height="32px" viewBox="0 0 351 32" version="1.1" xmlns="http://www.w3.org/2000/svg" xmlns:xlink="http://www.w3.org/1999/xlink">
    <!-- Generator: Sketch 51.3 (57544) - http://www.bohemiancoding.com/sketch -->
    <title>Brand/Logo</title>
    <desc>Created with Sketch.</desc>
    <defs></defs>
    <g id="Page-1" stroke="none" stroke-width="1" fill="none" fill-rule="evenodd">
        <g id="Desktop-HD" transform="translate(-34.000000, -32.000000)">
            <g id="Header" transform="translate(20.000000, 23.000000)">
                <g id="Brand/Logo2" transform="translate(5.000000, 0.000000)">
                    <g id="Group-4" transform="translate(49.982788, 18.125000)" fill="#3A506B">
                        <path d="M11.0886816,9.6975 C11.0886816,11.6475097 10.5976056,13.124995 9.6154389,14.13 C8.6332722,15.135005 7.26500705,15.6375 5.51060241,15.6375 C3.78618759,15.6375 2.4366658,15.1462549 1.46199656,14.16375 C0.487327313,13.1812451 0,11.7525094 0,9.8775 L0,0.2925 L1.82187263,0.2925 L1.82187263,9.855 C1.82187263,11.250007 2.15550441,12.2774967 2.82277797,12.9375 C3.49005153,13.5975033 4.38598405,13.9275 5.51060241,13.9275 C8.01475262,13.9275 9.26680895,12.5325139 9.26680895,9.7425 L9.26680895,0.2925 L11.0886816,0.2925 L11.0886816,9.6975 Z M16.976654,15.4575 L15.1547814,15.4575 L15.1547814,0.2925 L17.4489914,0.2925 L21.2501824,6.6825 L25.096358,13.2525 C25.0363784,11.7974927 25.006389,9.61501455 25.006389,6.705 L25.006389,0.2925 L26.8282616,0.2925 L26.8282616,15.4575 L24.5340516,15.4575 L20.7328606,9.1125 C19.9681201,7.83749363 19.2633698,6.64875551 18.6185886,5.54625 C17.9738074,4.44374449 17.5164695,3.6525024 17.2465611,3.1725 L16.8641928,2.475 C16.9391673,4.0350078 16.976654,6.23248582 16.976654,9.0675 L16.976654,15.4575 Z M32.8736799,15.4575 L31.0518072,15.4575 L31.0518072,0.2925 L32.8736799,0.2925 L32.8736799,15.4575 Z M50.0527642,7.8075 C50.0527642,9.5475087 49.7191324,11.0437437 49.0518589,12.29625 C48.0749273,14.13 46.1508711,15.6375 43.2601033,15.6375 C41.2058004,15.6375 39.5563849,14.9250071 38.3118072,13.5 C37.0672296,12.0749929 36.4449501,10.1775118 36.4449501,7.8075 C36.4449501,5.42248807 37.0559836,3.52500705 38.2780688,2.115 C39.5001541,0.70499295 41.1533183,0 43.237611,0 C45.3668884,0 47.0350473,0.701242988 48.2421377,2.10375 C49.4492281,3.50625701 50.0527642,5.407488 50.0527642,7.8075 Z M38.3567917,7.8075 C38.3567917,9.68250937 38.8028837,11.1674945 39.6950809,12.2625 C40.5872781,13.3575055 41.775607,13.905 43.2601033,13.905 C44.8045792,13.905 46.0004054,13.3650054 46.8476179,12.285 C47.6948304,11.2049946 48.1184303,9.71250953 48.1184303,7.8075 C48.1184303,5.90249047 47.6910817,4.4100054 46.8363718,3.33 C45.9816618,2.2499946 44.7820869,1.71 43.237611,1.71 C41.70813,1.71 40.5123038,2.25374456 39.6500964,3.34125 C38.787889,4.42875544 38.3567917,5.91749055 38.3567917,7.8075 Z M64.7352083,9.6975 C64.7352083,11.6475097 64.2441323,13.124995 63.2619656,14.13 C62.2797989,15.135005 60.9115337,15.6375 59.1571291,15.6375 C57.4327143,15.6375 56.0831925,15.1462549 55.1085232,14.16375 C54.133854,13.1812451 53.6465267,11.7525094 53.6465267,9.8775 L53.6465267,0.2925 L55.4683993,0.2925 L55.4683993,9.855 C55.4683993,11.250007 55.8020311,12.2774967 56.4693046,12.9375 C57.1365782,13.5975033 58.0325107,13.9275 59.1571291,13.9275 C61.6612793,13.9275 62.9133356,12.5325139 62.9133356,9.7425 L62.9133356,0.2925 L64.7352083,0.2925 L64.7352083,9.6975 Z M77.2583959,15.4575 L68.8013081,15.4575 L68.8013081,0.2925 L77.1459346,0.2925 L77.1459346,1.89 L70.6231807,1.89 L70.6231807,7.0875 L76.3811979,7.0875 L76.3811979,8.685 L70.6231807,8.685 L70.6231807,13.86 L77.2583959,13.86 L77.2583959,15.4575 Z M85.5080551,10.1925 L80.2448675,10.1925 L80.2448675,8.64 L85.5080551,8.64 L85.5080551,10.1925 Z M100.145515,15.4575 L98.323642,15.4575 L98.323642,8.595 L90.9686747,8.595 L90.9686747,15.4575 L89.1468021,15.4575 L89.1468021,0.2925 L90.9686747,0.2925 L90.9686747,6.9525 L98.323642,6.9525 L98.323642,0.2925 L100.145515,0.2925 L100.145515,15.4575 Z M117.189645,7.8075 C117.189645,10.1925119 116.578612,12.0937429 115.356527,13.51125 C114.134441,14.9287571 112.481277,15.6375 110.396985,15.6375 C108.342682,15.6375 106.693266,14.9250071 105.448688,13.5 C104.204111,12.0749929 103.581831,10.1775118 103.581831,7.8075 C103.581831,5.42248808 104.192865,3.52500705 105.41495,2.115 C106.637035,0.70499295 108.2902,0 110.374492,0 C112.50377,0 114.171929,0.701242988 115.379019,2.10375 C116.586109,3.50625701 117.189645,5.407488 117.189645,7.8075 Z M105.493673,7.8075 C105.493673,9.68250937 105.939765,11.1674945 106.831962,12.2625 C107.724159,13.3575055 108.912488,13.905 110.396985,13.905 C111.94146,13.905 113.137287,13.3650054 113.984499,12.285 C114.831712,11.2049946 115.255312,9.71250953 115.255312,7.8075 C115.255312,5.90249047 114.827963,4.4100054 113.973253,3.33 C113.118543,2.2499946 111.918968,1.71 110.374492,1.71 C108.845011,1.71 107.649185,2.25374456 106.786978,3.34125 C105.92477,4.42875544 105.493673,5.91749055 105.493673,7.8075 Z M122.267897,15.4575 L120.446024,15.4575 L121.548145,0.2925 L123.864847,0.2925 L125.866657,5.8275 L128.295821,12.8925 C129.165526,10.4324877 130.020223,8.07751125 130.859938,5.8275 L132.951718,0.2925 L135.26842,0.2925 L136.595463,15.4575 L134.77359,15.4575 L134.256269,9.4725 L133.716454,2.745 C132.921724,4.9650111 132.104514,7.20748868 131.264799,9.4725 L129.150527,15.12 L127.418623,15.12 L125.416812,9.4725 L123.122602,2.88 C123.122602,3.46500293 122.980153,5.66248095 122.69525,9.4725 L122.267897,15.4575 Z M148.961205,15.4575 L140.504117,15.4575 L140.504117,0.2925 L148.848744,0.2925 L148.848744,1.89 L142.32599,1.89 L142.32599,7.0875 L148.084007,7.0875 L148.084007,8.685 L142.32599,8.685 L142.32599,13.86 L148.961205,13.86 L148.961205,15.4575 Z M160.467243,15.4575 L158.64537,15.4575 L158.64537,0.2925 L160.467243,0.2925 L160.467243,15.4575 Z M166.355215,15.4575 L164.533343,15.4575 L165.635463,0.2925 L167.952165,0.2925 L169.953976,5.8275 L172.383139,12.8925 C173.252844,10.4324877 174.107541,8.07751125 174.947256,5.8275 L177.039036,0.2925 L179.355738,0.2925 L180.682781,15.4575 L178.860909,15.4575 L178.343587,9.4725 L177.803773,2.745 C177.009042,4.9650111 176.191832,7.20748868 175.352117,9.4725 L173.237845,15.12 L171.505941,15.12 L169.504131,9.4725 L167.209921,2.88 C167.209921,3.46500293 167.067471,5.66248095 166.782568,9.4725 L166.355215,15.4575 Z M188.752503,9.8775 L186.413308,9.8775 L186.413308,15.4575 L184.591435,15.4575 L184.591435,0.2925 L188.572565,0.2925 C190.326969,0.2925 191.710229,0.746245462 192.722386,1.65375 C193.734542,2.56125454 194.240613,3.7349928 194.240613,5.175 C194.240613,6.52500675 193.738291,7.64624554 192.733632,8.53875 C191.728973,9.43125446 190.401943,9.8775 188.752503,9.8775 Z M188.595057,1.845 L186.413308,1.845 L186.413308,8.325 L188.752503,8.325 C189.892116,8.325 190.7843,8.02875296 191.429081,7.43625 C192.073862,6.84374704 192.396248,6.09000458 192.396248,5.175 C192.396248,4.1549949 192.066365,3.345003 191.406589,2.745 C190.746813,2.144997 189.809645,1.845 188.595057,1.845 Z M201.388151,1.8675 L199.296372,1.8675 L199.296372,7.92 L201.590582,7.92 C202.625231,7.92 203.4162,7.63875281 203.963515,7.07625 C204.510829,6.51374719 204.784482,5.79000442 204.784482,4.905 C204.784482,2.87998987 203.652383,1.8675 201.388151,1.8675 Z M201.658059,9.4725 L199.296372,9.4725 L199.296372,15.4575 L197.474499,15.4575 L197.474499,0.2925 L201.27569,0.2925 C203.030095,0.2925 204.360873,0.704995875 205.268065,1.53 C206.175258,2.35500412 206.628847,3.49499273 206.628847,4.95 C206.598857,6.00000525 206.321455,6.89249632 205.796633,7.6275 C205.271811,8.36250367 204.529575,8.8799985 203.5699,9.18 L207.551029,15.4575 L205.369281,15.4575 L201.658059,9.4725 Z M223.380578,7.8075 C223.380578,10.1925119 222.769545,12.0937429 221.54746,13.51125 C220.325374,14.9287571 218.67221,15.6375 216.587917,15.6375 C214.533615,15.6375 212.884199,14.9250071 211.639621,13.5 C210.395044,12.0749929 209.772764,10.1775118 209.772764,7.8075 C209.772764,5.42248808 210.383798,3.52500705 211.605883,2.115 C212.827968,0.70499295 214.481132,0 216.565425,0 C218.694703,0 220.362861,0.701242988 221.569952,2.10375 C222.777042,3.50625701 223.380578,5.407488 223.380578,7.8075 Z M211.684606,7.8075 C211.684606,9.68250937 212.130698,11.1674945 213.022895,12.2625 C213.915092,13.3575055 215.103421,13.905 216.587917,13.905 C218.132393,13.905 219.32822,13.3650054 220.175432,12.285 C221.022645,11.2049946 221.446244,9.71250953 221.446244,7.8075 C221.446244,5.90249047 221.018896,4.4100054 220.164186,3.33 C219.309476,2.2499946 218.109901,1.71 216.565425,1.71 C215.035944,1.71 213.840118,2.25374456 212.97791,3.34125 C212.115703,4.42875544 211.684606,5.91749055 211.684606,7.8075 Z M233.294664,15.4575 L231.000454,15.4575 L225.87222,0.2925 L227.829046,0.2925 L229.808365,6.3 L232.170052,13.815 C232.754853,11.9249906 233.564566,9.4200156 234.599215,6.3 L236.623518,0.2925 L238.580344,0.2925 L233.294664,15.4575 Z M250.203842,15.4575 L241.746754,15.4575 L241.746754,0.2925 L250.09138,0.2925 L250.09138,1.89 L243.568627,1.89 L243.568627,7.0875 L249.326644,7.0875 L249.326644,8.685 L243.568627,8.685 L243.568627,13.86 L250.203842,13.86 L250.203842,15.4575 Z M255.304585,15.4575 L253.482713,15.4575 L254.584833,0.2925 L256.901535,0.2925 L258.903346,5.8275 L261.332509,12.8925 C262.202214,10.4324877 263.056911,8.07751125 263.896627,5.8275 L265.988406,0.2925 L268.305108,0.2925 L269.632151,15.4575 L267.810279,15.4575 L267.292957,9.4725 L266.753143,2.745 C265.958413,4.9650111 265.141202,7.20748868 264.301487,9.4725 L262.187215,15.12 L260.455312,15.12 L258.453501,9.4725 L256.159291,2.88 C256.159291,3.46500293 256.016841,5.66248095 255.731938,9.4725 L255.304585,15.4575 Z M281.997893,15.4575 L273.540806,15.4575 L273.540806,0.2925 L281.885432,0.2925 L281.885432,1.89 L275.362678,1.89 L275.362678,7.0875 L281.120695,7.0875 L281.120695,8.685 L275.362678,8.685 L275.362678,13.86 L281.997893,13.86 L281.997893,15.4575 Z M287.256083,15.4575 L285.43421,15.4575 L285.43421,0.2925 L287.72842,0.2925 L291.529611,6.6825 L295.375787,13.2525 C295.315807,11.7974927 295.285818,9.61501455 295.285818,6.705 L295.285818,0.2925 L297.10769,0.2925 L297.10769,15.4575 L294.81348,15.4575 L291.012289,9.1125 C290.247549,7.83749363 289.542798,6.64875551 288.898017,5.54625 C288.253236,4.44374449 287.795898,3.6525024 287.52599,3.1725 L287.143621,2.475 C287.218596,4.0350078 287.256083,6.23248582 287.256083,9.0675 L287.256083,15.4575 Z M309.878293,1.89 L305.784702,1.89 L305.784702,15.4575 L303.96283,15.4575 L303.96283,1.89 L299.869239,1.89 L299.869239,0.2925 L309.878293,0.2925 L309.878293,1.89 Z" id="Unique-Home-Improvem"></path>
                        <rect id="Rectangle-3" x="45.7553479" y="11.2694306" width="1.72722933" height="4.375"></rect>
                    </g>
                    <g id="Group-3" transform="translate(9.371773, 9.375000)">
                        <polygon id="Rectangle-2" fill="#1C2541" points="0 15.625 12.4956971 0 24.9913941 15.625 12.4956971 31.25"></polygon>
                        <polygon id="Rectangle-2" fill="#3A506B" points="0 15.625 12.4956971 6.25 24.9913941 15.625 12.4956971 25"></polygon>
                        <polygon id="Path" fill="#FFFFFF" fill-rule="nonzero" points="0 15.625 24.9913941 15.625 12.4956971 31.25"></polygon>
                        <path d="M0,15.625 L24.9913941,15.625 L12.4956971,31.25 L0,15.625 Z M0.249913941,15.625 L12.4956971,30.625 L24.7414802,15.625 L0.249913941,15.625 Z" id="Rectangle-2" fill="#F0F0F0" fill-rule="nonzero"></path>
                        <g id="Group-2" transform="translate(0.000000, 15.625000)" fill-rule="nonzero">
                            <polygon id="Path" fill="#3A506B" points="0 0 24.9913941 0 12.4956971 9.375"></polygon>
                            <path d="M0,0 L24.9913941,0 L12.4956971,9.375 L0,0 Z M12.4956971,9 L24.4915663,-1.42108547e-14 L0.499827883,-1.42108547e-14 L12.4956971,9 Z" id="Rectangle-2" fill="#F0F0F0"></path>
                        </g>
                        <g id="Group-2" transform="translate(12.495697, 10.937500) scale(1, -1) translate(-12.495697, -10.937500) translate(0.000000, 6.250000)" fill-rule="nonzero">
                            <polygon id="Path" fill="#FFFFFF" points="0 0 24.9913941 0 12.4956971 9.375"></polygon>
                            <path d="M0,0 L24.9913941,0 L12.4956971,9.375 L0,0 Z M12.4956971,9 L24.4915663,-1.42108547e-14 L0.499827883,-1.42108547e-14 L12.4956971,9 Z" id="Rectangle-2" fill="#F0F0F0"></path>
                        </g>
                        <polygon id="Rectangle-2" fill="#FFFFFF" fill-rule="nonzero" points="0 15.625 12.4956971 12.5 24.9913941 15.625 12.4956971 18.75"></polygon>
                        <path d="M0,15.625 L12.4956971,12.5 L24.9913941,15.625 L12.4956971,18.75 L0,15.625 Z M12.4956971,18.4375 L23.9917384,15.625 L12.4956971,12.8125 L0.999655766,15.625 L12.4956971,18.4375 Z" id="Rectangle-2" fill="#F0F0F0" fill-rule="nonzero"></path>
                    </g>
                </g>
            </g>
        </g>
    </g>
</svg>